<mxfile host="app.diagrams.net" modified="2024-07-23T07:47:55.991Z" agent="Mozilla/5.0 (Windows NT 10.0; Win64; x64) AppleWebKit/537.36 (KHTML, like Gecko) Chrome/124.0.0.0 YaBrowser/24.6.0.0 Safari/537.36" etag="d1q1qJXg3DLlOg87Ewyd" version="24.7.3" type="github">
  <diagram name="Страница — 1" id="Jbt8qNYvxL4YFeQoL3w7">
    <mxGraphModel dx="3786" dy="2337" grid="1" gridSize="10" guides="1" tooltips="1" connect="1" arrows="1" fold="1" page="1" pageScale="1" pageWidth="827" pageHeight="1169" math="0" shadow="0">
      <root>
        <mxCell id="0" />
        <mxCell id="1" parent="0" />
        <mxCell id="nvozfT3oqAUqyu6yPgUq-3" value="&lt;span style=&quot;color: rgb(79, 193, 255); font-family: Consolas, &amp;quot;Courier New&amp;quot;, monospace; font-size: 14px; text-align: start; white-space-collapse: preserve; background-color: rgb(32, 32, 32);&quot; class=&quot;mtk19&quot;&gt;CHAT_PAGE&lt;/span&gt;&lt;span style=&quot;color: rgb(212, 212, 212); font-family: Consolas, &amp;quot;Courier New&amp;quot;, monospace; font-size: 14px; text-align: start; white-space-collapse: preserve; background-color: rgb(32, 32, 32);&quot; class=&quot;mtk3&quot;&gt;:&lt;/span&gt;&lt;span style=&quot;color: rgb(204, 204, 204); font-family: Consolas, &amp;quot;Courier New&amp;quot;, monospace; font-size: 14px; text-align: start; white-space-collapse: preserve; background-color: rgb(32, 32, 32);&quot; class=&quot;mtk1&quot;&gt; &lt;/span&gt;&lt;span style=&quot;color: rgb(206, 145, 120); font-family: Consolas, &amp;quot;Courier New&amp;quot;, monospace; font-size: 14px; text-align: start; white-space-collapse: preserve; background-color: rgb(32, 32, 32);&quot; class=&quot;mtk12&quot;&gt;&quot;&quot;&lt;/span&gt;" style="rounded=0;whiteSpace=wrap;html=1;" vertex="1" parent="1">
          <mxGeometry x="-540" y="140" width="240" height="100" as="geometry" />
        </mxCell>
        <mxCell id="nvozfT3oqAUqyu6yPgUq-16" value="" style="edgeStyle=orthogonalEdgeStyle;rounded=0;orthogonalLoop=1;jettySize=auto;html=1;" edge="1" parent="1" source="nvozfT3oqAUqyu6yPgUq-4" target="nvozfT3oqAUqyu6yPgUq-15">
          <mxGeometry relative="1" as="geometry" />
        </mxCell>
        <mxCell id="nvozfT3oqAUqyu6yPgUq-4" value="&lt;span style=&quot;color: rgb(79, 193, 255); font-family: Consolas, &amp;quot;Courier New&amp;quot;, monospace; font-size: 14px; text-align: start; white-space-collapse: preserve; background-color: rgb(32, 32, 32);&quot; class=&quot;mtk19&quot;&gt;CREATE_PROFILE_PAGE&lt;/span&gt;&lt;span style=&quot;color: rgb(212, 212, 212); font-family: Consolas, &amp;quot;Courier New&amp;quot;, monospace; font-size: 14px; text-align: start; white-space-collapse: preserve; background-color: rgb(32, 32, 32);&quot; class=&quot;mtk3&quot;&gt;:&lt;/span&gt;&lt;span style=&quot;color: rgb(204, 204, 204); font-family: Consolas, &amp;quot;Courier New&amp;quot;, monospace; font-size: 14px; text-align: start; white-space-collapse: preserve; background-color: rgb(32, 32, 32);&quot; class=&quot;mtk1&quot;&gt; &lt;/span&gt;&lt;span style=&quot;color: rgb(206, 145, 120); font-family: Consolas, &amp;quot;Courier New&amp;quot;, monospace; font-size: 14px; text-align: start; white-space-collapse: preserve; background-color: rgb(32, 32, 32);&quot; class=&quot;mtk12&quot;&gt;&quot;/create-profile&quot;&lt;/span&gt;" style="rounded=0;whiteSpace=wrap;html=1;" vertex="1" parent="1">
          <mxGeometry x="250" y="150" width="270" height="90" as="geometry" />
        </mxCell>
        <mxCell id="nvozfT3oqAUqyu6yPgUq-11" value="" style="edgeStyle=orthogonalEdgeStyle;rounded=0;orthogonalLoop=1;jettySize=auto;html=1;" edge="1" parent="1" source="nvozfT3oqAUqyu6yPgUq-5" target="nvozfT3oqAUqyu6yPgUq-8">
          <mxGeometry relative="1" as="geometry" />
        </mxCell>
        <mxCell id="nvozfT3oqAUqyu6yPgUq-5" value="&lt;span style=&quot;color: rgb(79, 193, 255); font-family: Consolas, &amp;quot;Courier New&amp;quot;, monospace; font-size: 14px; text-align: start; white-space-collapse: preserve; background-color: rgb(32, 32, 32);&quot; class=&quot;mtk19&quot;&gt;NOT_FOUND_PAGE&lt;/span&gt;&lt;span style=&quot;color: rgb(212, 212, 212); font-family: Consolas, &amp;quot;Courier New&amp;quot;, monospace; font-size: 14px; text-align: start; white-space-collapse: preserve; background-color: rgb(32, 32, 32);&quot; class=&quot;mtk3&quot;&gt;:&lt;/span&gt;&lt;span style=&quot;color: rgb(204, 204, 204); font-family: Consolas, &amp;quot;Courier New&amp;quot;, monospace; font-size: 14px; text-align: start; white-space-collapse: preserve; background-color: rgb(32, 32, 32);&quot; class=&quot;mtk1&quot;&gt; &lt;/span&gt;&lt;span style=&quot;color: rgb(206, 145, 120); font-family: Consolas, &amp;quot;Courier New&amp;quot;, monospace; font-size: 14px; text-align: start; white-space-collapse: preserve; background-color: rgb(32, 32, 32);&quot; class=&quot;mtk12&quot;&gt;&quot;*&quot;&lt;/span&gt;" style="rounded=0;whiteSpace=wrap;html=1;" vertex="1" parent="1">
          <mxGeometry x="590" y="150" width="240" height="90" as="geometry" />
        </mxCell>
        <mxCell id="nvozfT3oqAUqyu6yPgUq-7" value="&lt;span style=&quot;color: rgb(78, 201, 176); font-family: Consolas, &amp;quot;Courier New&amp;quot;, monospace; font-size: 32px; white-space: pre; background-color: rgb(31, 31, 31);&quot;&gt;Routes&lt;/span&gt;" style="shape=partialRectangle;whiteSpace=wrap;html=1;bottom=0;top=0;fillColor=none;fontSize=20;" vertex="1" parent="1">
          <mxGeometry x="400" y="-20" width="120" height="60" as="geometry" />
        </mxCell>
        <mxCell id="nvozfT3oqAUqyu6yPgUq-14" value="" style="edgeStyle=orthogonalEdgeStyle;rounded=0;orthogonalLoop=1;jettySize=auto;html=1;" edge="1" parent="1" source="nvozfT3oqAUqyu6yPgUq-8" target="nvozfT3oqAUqyu6yPgUq-13">
          <mxGeometry relative="1" as="geometry" />
        </mxCell>
        <mxCell id="nvozfT3oqAUqyu6yPgUq-8" value="&lt;div style=&quot;background-color: rgb(31, 31, 31); font-family: Consolas, &amp;quot;Courier New&amp;quot;, monospace; font-size: 14px; line-height: 19px; white-space: pre;&quot;&gt;&lt;font color=&quot;#808080&quot;&gt;тут будут seo и тд.&lt;/font&gt;&lt;/div&gt;&lt;div style=&quot;background-color: rgb(31, 31, 31); font-family: Consolas, &amp;quot;Courier New&amp;quot;, monospace; font-size: 14px; line-height: 19px; white-space: pre;&quot;&gt;&lt;font color=&quot;#808080&quot;&gt;Page&lt;/font&gt;&lt;/div&gt;&lt;div style=&quot;color: rgb(204, 204, 204); background-color: rgb(31, 31, 31); font-family: Consolas, &amp;quot;Courier New&amp;quot;, monospace; font-size: 14px; line-height: 19px; white-space: pre;&quot;&gt;&lt;span style=&quot;color: #808080;&quot;&gt;&amp;lt;&lt;/span&gt;&lt;span style=&quot;color: #4ec9b0;&quot;&gt;NotFoundPage&lt;/span&gt;&lt;span style=&quot;color: #d4d4d4;&quot;&gt; &lt;/span&gt;&lt;span style=&quot;color: #9cdcfe;&quot;&gt;global&lt;/span&gt;&lt;span style=&quot;color: #d4d4d4;&quot;&gt; &lt;/span&gt;&lt;span style=&quot;color: #808080;&quot;&gt;/&amp;gt;&lt;/span&gt;&lt;/div&gt;" style="rounded=0;whiteSpace=wrap;html=1;" vertex="1" parent="1">
          <mxGeometry x="590" y="270" width="240" height="150" as="geometry" />
        </mxCell>
        <mxCell id="nvozfT3oqAUqyu6yPgUq-13" value="&lt;div style=&quot;color: rgb(204, 204, 204); background-color: rgb(31, 31, 31); font-family: Consolas, &amp;quot;Courier New&amp;quot;, monospace; font-size: 14px; line-height: 19px; white-space: pre;&quot;&gt;&lt;span style=&quot;color: rgb(128, 128, 128);&quot;&gt;Comp &lt;/span&gt;&lt;span style=&quot;color: rgb(79, 193, 255);&quot;&gt;NotFound&lt;/span&gt;&lt;/div&gt;&lt;div style=&quot;background-color: rgb(31, 31, 31); font-family: Consolas, &amp;quot;Courier New&amp;quot;, monospace; font-size: 14px; line-height: 19px; white-space: pre;&quot;&gt;&lt;font color=&quot;#4fc1ff&quot;&gt;Comp Title&lt;/font&gt;&lt;/div&gt;" style="whiteSpace=wrap;html=1;rounded=0;" vertex="1" parent="1">
          <mxGeometry x="650" y="460" width="120" height="60" as="geometry" />
        </mxCell>
        <mxCell id="nvozfT3oqAUqyu6yPgUq-15" value="Page&lt;div&gt;&lt;div style=&quot;color: rgb(204, 204, 204); background-color: rgb(31, 31, 31); font-family: Consolas, &amp;quot;Courier New&amp;quot;, monospace; font-size: 14px; line-height: 19px; white-space: pre;&quot;&gt;&lt;span style=&quot;color: #4fc1ff;&quot;&gt;CreateProfilePage&lt;/span&gt;&lt;/div&gt;&lt;/div&gt;" style="whiteSpace=wrap;html=1;rounded=0;" vertex="1" parent="1">
          <mxGeometry x="304" y="270" width="175" height="60" as="geometry" />
        </mxCell>
        <mxCell id="nvozfT3oqAUqyu6yPgUq-25" value="" style="rounded=0;whiteSpace=wrap;html=1;" vertex="1" parent="1">
          <mxGeometry x="-1020" y="250" width="1270" height="620" as="geometry" />
        </mxCell>
        <mxCell id="nvozfT3oqAUqyu6yPgUq-26" value="&lt;div style=&quot;color: rgb(204, 204, 204); background-color: rgb(31, 31, 31); font-family: Consolas, &amp;quot;Courier New&amp;quot;, monospace; font-size: 14px; line-height: 19px; white-space: pre;&quot;&gt;&lt;span style=&quot;color: #9cdcfe;&quot;&gt;globalLayout - Header от Кати&lt;/span&gt;&lt;/div&gt;" style="text;html=1;align=center;verticalAlign=middle;whiteSpace=wrap;rounded=0;" vertex="1" parent="1">
          <mxGeometry x="-760" y="320" width="280" height="30" as="geometry" />
        </mxCell>
        <mxCell id="nvozfT3oqAUqyu6yPgUq-27" value="title&amp;nbsp;&lt;span style=&quot;color: rgb(206, 145, 120); font-family: Consolas, &amp;quot;Courier New&amp;quot;, monospace; font-size: 14px; text-align: start; white-space-collapse: preserve; background-color: rgb(32, 32, 32);&quot;&gt;doc24&lt;/span&gt;&lt;div&gt;&lt;span style=&quot;color: rgb(206, 145, 120); font-family: Consolas, &amp;quot;Courier New&amp;quot;, monospace; font-size: 14px; text-align: start; white-space-collapse: preserve; background-color: rgb(32, 32, 32);&quot;&gt;&lt;br&gt;&lt;/span&gt;&lt;/div&gt;" style="text;html=1;align=center;verticalAlign=middle;whiteSpace=wrap;rounded=0;" vertex="1" parent="1">
          <mxGeometry x="-380" y="320" width="60" height="30" as="geometry" />
        </mxCell>
        <mxCell id="nvozfT3oqAUqyu6yPgUq-28" value="&lt;span style=&quot;color: rgb(79, 193, 255); background-color: rgb(31, 31, 31); font-family: Consolas, &amp;quot;Courier New&amp;quot;, monospace; font-size: 14px; white-space: pre;&quot;&gt;ChatLayout &lt;/span&gt;Outlet" style="shape=process;whiteSpace=wrap;html=1;backgroundOutline=1;" vertex="1" parent="1">
          <mxGeometry x="-650" y="380" width="430" height="60" as="geometry" />
        </mxCell>
        <mxCell id="nvozfT3oqAUqyu6yPgUq-34" value="" style="edgeStyle=orthogonalEdgeStyle;rounded=0;orthogonalLoop=1;jettySize=auto;html=1;" edge="1" parent="1" source="nvozfT3oqAUqyu6yPgUq-29" target="nvozfT3oqAUqyu6yPgUq-33">
          <mxGeometry relative="1" as="geometry" />
        </mxCell>
        <mxCell id="nvozfT3oqAUqyu6yPgUq-29" value="&lt;span style=&quot;color: rgb(206, 145, 120); font-family: Consolas, &amp;quot;Courier New&amp;quot;, monospace; font-size: 14px; text-align: start; white-space-collapse: preserve; background-color: rgb(32, 32, 32);&quot;&gt;&quot;/registration&quot;&lt;/span&gt;" style="text;html=1;align=center;verticalAlign=middle;whiteSpace=wrap;rounded=0;" vertex="1" parent="1">
          <mxGeometry x="10" y="520" width="60" height="30" as="geometry" />
        </mxCell>
        <mxCell id="nvozfT3oqAUqyu6yPgUq-42" value="" style="edgeStyle=orthogonalEdgeStyle;rounded=0;orthogonalLoop=1;jettySize=auto;html=1;" edge="1" parent="1" source="nvozfT3oqAUqyu6yPgUq-30" target="nvozfT3oqAUqyu6yPgUq-41">
          <mxGeometry relative="1" as="geometry" />
        </mxCell>
        <mxCell id="nvozfT3oqAUqyu6yPgUq-30" value="&lt;span style=&quot;color: rgb(206, 145, 120); font-family: Consolas, &amp;quot;Courier New&amp;quot;, monospace; font-size: 14px; text-align: start; white-space-collapse: preserve; background-color: rgb(32, 32, 32);&quot;&gt;/verification&lt;/span&gt;" style="text;html=1;align=center;verticalAlign=middle;whiteSpace=wrap;rounded=0;" vertex="1" parent="1">
          <mxGeometry x="-340" y="520" width="60" height="30" as="geometry" />
        </mxCell>
        <mxCell id="nvozfT3oqAUqyu6yPgUq-36" value="" style="edgeStyle=orthogonalEdgeStyle;rounded=0;orthogonalLoop=1;jettySize=auto;html=1;" edge="1" parent="1" source="nvozfT3oqAUqyu6yPgUq-33" target="nvozfT3oqAUqyu6yPgUq-35">
          <mxGeometry relative="1" as="geometry" />
        </mxCell>
        <mxCell id="nvozfT3oqAUqyu6yPgUq-33" value="&lt;div style=&quot;color: rgb(204, 204, 204); background-color: rgb(31, 31, 31); font-family: Consolas, &amp;quot;Courier New&amp;quot;, monospace; font-size: 14px; line-height: 19px; white-space: pre;&quot;&gt;&lt;span style=&quot;color: #808080;&quot;&gt;Page &lt;/span&gt;&lt;/div&gt;&lt;div style=&quot;color: rgb(204, 204, 204); background-color: rgb(31, 31, 31); font-family: Consolas, &amp;quot;Courier New&amp;quot;, monospace; font-size: 14px; line-height: 19px; white-space: pre;&quot;&gt;&lt;span style=&quot;color: #808080;&quot;&gt;&amp;lt;&lt;/span&gt;&lt;span style=&quot;color: #4ec9b0;&quot;&gt;LoginLayout&lt;/span&gt;&lt;span style=&quot;color: #d4d4d4;&quot;&gt; &lt;/span&gt;&lt;span style=&quot;color: #808080;&quot;&gt;/&amp;gt;&lt;/span&gt;&lt;/div&gt;" style="whiteSpace=wrap;html=1;" vertex="1" parent="1">
          <mxGeometry x="-20" y="570" width="120" height="60" as="geometry" />
        </mxCell>
        <mxCell id="nvozfT3oqAUqyu6yPgUq-40" style="edgeStyle=orthogonalEdgeStyle;rounded=0;orthogonalLoop=1;jettySize=auto;html=1;" edge="1" parent="1" source="nvozfT3oqAUqyu6yPgUq-35">
          <mxGeometry relative="1" as="geometry">
            <mxPoint x="10" y="780" as="targetPoint" />
          </mxGeometry>
        </mxCell>
        <mxCell id="nvozfT3oqAUqyu6yPgUq-35" value="&lt;div style=&quot;color: rgb(204, 204, 204); background-color: rgb(31, 31, 31); font-family: Consolas, &amp;quot;Courier New&amp;quot;, monospace; font-size: 14px; line-height: 19px; white-space: pre;&quot;&gt;&lt;div style=&quot;line-height: 19px;&quot;&gt;&lt;span style=&quot;color: #808080;&quot;&gt;&amp;lt;&lt;/span&gt;&lt;span style=&quot;color: #4ec9b0;&quot;&gt;Registration&lt;/span&gt; &lt;span style=&quot;color: #808080;&quot;&gt;/&amp;gt;&lt;/span&gt;&lt;/div&gt;&lt;/div&gt;" style="whiteSpace=wrap;html=1;" vertex="1" parent="1">
          <mxGeometry x="-70" y="670" width="220" height="60" as="geometry" />
        </mxCell>
        <mxCell id="nvozfT3oqAUqyu6yPgUq-37" value="&lt;div style=&quot;color: rgb(204, 204, 204); background-color: rgb(31, 31, 31); font-family: Consolas, &amp;quot;Courier New&amp;quot;, monospace; font-size: 14px; line-height: 19px; white-space: pre;&quot;&gt;&lt;span style=&quot;color: #808080;&quot;&gt;&amp;lt;&lt;/span&gt;&lt;span style=&quot;color: #4ec9b0;&quot;&gt;PhoneBlock&lt;/span&gt;&lt;/div&gt;" style="rounded=0;whiteSpace=wrap;html=1;" vertex="1" parent="1">
          <mxGeometry x="-180" y="760" width="120" height="60" as="geometry" />
        </mxCell>
        <mxCell id="nvozfT3oqAUqyu6yPgUq-38" value="&lt;div style=&quot;color: rgb(204, 204, 204); background-color: rgb(31, 31, 31); font-family: Consolas, &amp;quot;Courier New&amp;quot;, monospace; font-size: 14px; line-height: 19px; white-space: pre;&quot;&gt;&lt;span style=&quot;color: #d4d4d4;&quot;&gt;&amp;nbsp;&lt;/span&gt;&lt;span style=&quot;color: #808080;&quot;&gt;&amp;lt;&lt;/span&gt;&lt;span style=&quot;color: #4ec9b0;&quot;&gt;CodeBlock&lt;/span&gt;&lt;/div&gt;" style="rounded=0;whiteSpace=wrap;html=1;" vertex="1" parent="1">
          <mxGeometry x="80" y="770" width="120" height="60" as="geometry" />
        </mxCell>
        <mxCell id="nvozfT3oqAUqyu6yPgUq-39" value="" style="shape=flexArrow;endArrow=classic;startArrow=classic;html=1;rounded=0;exitX=1;exitY=0.5;exitDx=0;exitDy=0;entryX=0;entryY=0.5;entryDx=0;entryDy=0;" edge="1" parent="1" source="nvozfT3oqAUqyu6yPgUq-37">
          <mxGeometry width="100" height="100" relative="1" as="geometry">
            <mxPoint x="-210" y="700" as="sourcePoint" />
            <mxPoint x="70.00000000000045" y="790" as="targetPoint" />
          </mxGeometry>
        </mxCell>
        <mxCell id="nvozfT3oqAUqyu6yPgUq-44" value="" style="edgeStyle=orthogonalEdgeStyle;rounded=0;orthogonalLoop=1;jettySize=auto;html=1;" edge="1" parent="1" source="nvozfT3oqAUqyu6yPgUq-41" target="nvozfT3oqAUqyu6yPgUq-43">
          <mxGeometry relative="1" as="geometry" />
        </mxCell>
        <mxCell id="nvozfT3oqAUqyu6yPgUq-41" value="&lt;div style=&quot;color: rgb(204, 204, 204); background-color: rgb(31, 31, 31); font-family: Consolas, &amp;quot;Courier New&amp;quot;, monospace; font-size: 14px; line-height: 19px; white-space: pre;&quot;&gt;&lt;span style=&quot;color: #808080;&quot;&gt;&amp;lt;&lt;/span&gt;&lt;span style=&quot;color: #4ec9b0;&quot;&gt;VerificationPage&lt;/span&gt;&lt;span style=&quot;color: #d4d4d4;&quot;&gt; &lt;/span&gt;&lt;span style=&quot;color: #808080;&quot;&gt;/&amp;gt;&lt;/span&gt;&lt;/div&gt;" style="whiteSpace=wrap;html=1;" vertex="1" parent="1">
          <mxGeometry x="-370" y="570" width="170" height="60" as="geometry" />
        </mxCell>
        <mxCell id="nvozfT3oqAUqyu6yPgUq-43" value="&lt;div style=&quot;color: rgb(204, 204, 204); background-color: rgb(31, 31, 31); font-family: Consolas, &amp;quot;Courier New&amp;quot;, monospace; font-size: 14px; line-height: 19px; white-space: pre;&quot;&gt;&lt;span style=&quot;color: #808080;&quot;&gt;&amp;lt;&lt;/span&gt;&lt;span style=&quot;color: #4ec9b0;&quot;&gt;Verifications&lt;/span&gt; &lt;span style=&quot;color: #808080;&quot;&gt;/&amp;gt;&lt;/span&gt;&lt;/div&gt;" style="whiteSpace=wrap;html=1;" vertex="1" parent="1">
          <mxGeometry x="-345" y="650" width="175" height="60" as="geometry" />
        </mxCell>
        <mxCell id="nvozfT3oqAUqyu6yPgUq-47" value="" style="edgeStyle=orthogonalEdgeStyle;rounded=0;orthogonalLoop=1;jettySize=auto;html=1;" edge="1" parent="1" source="nvozfT3oqAUqyu6yPgUq-45" target="nvozfT3oqAUqyu6yPgUq-46">
          <mxGeometry relative="1" as="geometry" />
        </mxCell>
        <mxCell id="nvozfT3oqAUqyu6yPgUq-45" value="&lt;span style=&quot;color: rgb(206, 145, 120); font-family: Consolas, &amp;quot;Courier New&amp;quot;, monospace; font-size: 14px; text-align: start; white-space-collapse: preserve; background-color: rgb(32, 32, 32);&quot;&gt;&quot;&quot;&lt;/span&gt;" style="text;html=1;align=center;verticalAlign=middle;whiteSpace=wrap;rounded=0;" vertex="1" parent="1">
          <mxGeometry x="-580" y="460" width="60" height="30" as="geometry" />
        </mxCell>
        <mxCell id="nvozfT3oqAUqyu6yPgUq-46" value="&lt;div style=&quot;color: rgb(204, 204, 204); background-color: rgb(31, 31, 31); font-family: Consolas, &amp;quot;Courier New&amp;quot;, monospace; font-size: 14px; line-height: 19px; white-space: pre;&quot;&gt;&lt;span style=&quot;color: #d4d4d4;&quot;&gt;&amp;nbsp;&lt;/span&gt;&lt;span style=&quot;color: #808080;&quot;&gt;&amp;lt;&lt;/span&gt;&lt;span style=&quot;color: #4ec9b0;&quot;&gt;ChatPageWeb&lt;/span&gt;&lt;span style=&quot;color: #d4d4d4;&quot;&gt; &lt;/span&gt;&lt;span style=&quot;color: #808080;&quot;&gt;/&amp;gt;&lt;/span&gt;&lt;/div&gt;" style="whiteSpace=wrap;html=1;" vertex="1" parent="1">
          <mxGeometry x="-870" y="460" width="120" height="60" as="geometry" />
        </mxCell>
        <mxCell id="nvozfT3oqAUqyu6yPgUq-48" value="" style="rounded=0;whiteSpace=wrap;html=1;" vertex="1" parent="1">
          <mxGeometry x="-1130" y="510" width="740" height="530" as="geometry" />
        </mxCell>
        <mxCell id="nvozfT3oqAUqyu6yPgUq-49" value="" style="rounded=1;absoluteArcSize=1;html=1;arcSize=10;" vertex="1" parent="1">
          <mxGeometry x="-830" y="550" width="330" height="180" as="geometry" />
        </mxCell>
        <mxCell id="nvozfT3oqAUqyu6yPgUq-50" value="&lt;div style=&quot;color: rgb(204, 204, 204); background-color: rgb(31, 31, 31); font-family: Consolas, &amp;quot;Courier New&amp;quot;, monospace; font-size: 14px; line-height: 19px; white-space: pre;&quot;&gt;&lt;span style=&quot;color: #808080;&quot;&gt;&amp;lt;&lt;/span&gt;&lt;span style=&quot;color: #4ec9b0;&quot;&gt;ChatWebNavBar&lt;/span&gt; &lt;span style=&quot;color: #808080;&quot;&gt;/&amp;gt;&lt;/span&gt;&lt;/div&gt;" style="html=1;shape=mxgraph.er.anchor;whiteSpace=wrap;" vertex="1" parent="nvozfT3oqAUqyu6yPgUq-49">
          <mxGeometry width="165" height="180" as="geometry" />
        </mxCell>
        <mxCell id="nvozfT3oqAUqyu6yPgUq-51" value="&lt;font style=&quot;font-size: 23px;&quot;&gt;Outlet&lt;/font&gt;" style="rounded=1;absoluteArcSize=1;html=1;arcSize=10;whiteSpace=wrap;points=[];strokeColor=inherit;fillColor=inherit;" vertex="1" parent="nvozfT3oqAUqyu6yPgUq-49">
          <mxGeometry x="165" y="9" width="148.5" height="162" as="geometry" />
        </mxCell>
        <mxCell id="nvozfT3oqAUqyu6yPgUq-52" value="&lt;div style=&quot;color: rgb(204, 204, 204); background-color: rgb(31, 31, 31); font-family: Consolas, &amp;quot;Courier New&amp;quot;, monospace; font-size: 14px; line-height: 19px; white-space: pre;&quot;&gt;&lt;div style=&quot;line-height: 19px;&quot;&gt;&lt;span style=&quot;color: #808080;&quot;&gt;&amp;lt;&lt;/span&gt;&lt;span style=&quot;color: #4ec9b0;&quot;&gt;LeftLeavingWebNavigation&lt;/span&gt; &lt;span style=&quot;color: #808080;&quot;&gt;/&amp;gt;&lt;/span&gt;&lt;/div&gt;&lt;/div&gt;" style="rounded=0;whiteSpace=wrap;html=1;" vertex="1" parent="1">
          <mxGeometry x="-1080" y="555" width="240" height="170" as="geometry" />
        </mxCell>
        <mxCell id="nvozfT3oqAUqyu6yPgUq-53" value="" style="shape=singleArrow;whiteSpace=wrap;html=1;" vertex="1" parent="1">
          <mxGeometry x="-927" y="650" width="137" height="60" as="geometry" />
        </mxCell>
        <mxCell id="nvozfT3oqAUqyu6yPgUq-55" value="" style="edgeStyle=orthogonalEdgeStyle;sourcePerimeterSpacing=0;targetPerimeterSpacing=0;startArrow=none;endArrow=none;rounded=0;targetPortConstraint=eastwest;sourcePortConstraint=northsouth;curved=0;rounded=0;" edge="1" target="nvozfT3oqAUqyu6yPgUq-57" parent="1">
          <mxGeometry relative="1" as="geometry">
            <mxPoint x="-590" y="720" as="sourcePoint" />
          </mxGeometry>
        </mxCell>
        <mxCell id="nvozfT3oqAUqyu6yPgUq-56" value="&lt;div style=&quot;color: rgb(204, 204, 204); background-color: rgb(31, 31, 31); font-family: Consolas, &amp;quot;Courier New&amp;quot;, monospace; font-size: 14px; line-height: 19px; white-space: pre;&quot;&gt;&lt;span style=&quot;color: #808080;&quot;&gt;&amp;lt;&lt;/span&gt;&lt;span style=&quot;color: #4ec9b0;&quot;&gt;UserSelectChat&lt;/span&gt;&lt;span style=&quot;color: #d4d4d4;&quot;&gt; &lt;/span&gt;&lt;span style=&quot;color: #808080;&quot;&gt;/&amp;gt;&lt;/span&gt;&lt;/div&gt;" style="whiteSpace=wrap;html=1;align=center;verticalAlign=middle;treeFolding=1;treeMoving=1;" vertex="1" parent="1">
          <mxGeometry x="-930" y="780" width="220" height="110" as="geometry" />
        </mxCell>
        <mxCell id="nvozfT3oqAUqyu6yPgUq-57" value="&lt;div style=&quot;color: rgb(204, 204, 204); background-color: rgb(31, 31, 31); font-family: Consolas, &amp;quot;Courier New&amp;quot;, monospace; font-size: 14px; line-height: 19px; white-space: pre;&quot;&gt;&lt;span style=&quot;color: #808080;&quot;&gt;&amp;lt;&lt;/span&gt;&lt;span style=&quot;color: #4ec9b0;&quot;&gt;PlaceHolderSelectChat&lt;/span&gt;&lt;span style=&quot;color: #d4d4d4;&quot;&gt; &lt;/span&gt;&lt;span style=&quot;color: #808080;&quot;&gt;/&amp;gt;&lt;/span&gt;&lt;/div&gt;" style="whiteSpace=wrap;html=1;align=center;verticalAlign=middle;treeFolding=1;treeMoving=1;" vertex="1" parent="1">
          <mxGeometry x="-690" y="780" width="260" height="120" as="geometry" />
        </mxCell>
        <mxCell id="nvozfT3oqAUqyu6yPgUq-59" value="" style="edgeStyle=elbowEdgeStyle;elbow=vertical;sourcePerimeterSpacing=0;targetPerimeterSpacing=0;startArrow=none;endArrow=none;rounded=0;curved=0;" edge="1" parent="1">
          <mxGeometry relative="1" as="geometry">
            <mxPoint x="-850" y="890" as="sourcePoint" />
            <mxPoint x="-820" y="930" as="targetPoint" />
          </mxGeometry>
        </mxCell>
        <mxCell id="nvozfT3oqAUqyu6yPgUq-66" value="" style="rounded=1;absoluteArcSize=1;html=1;arcSize=10;" vertex="1" parent="1">
          <mxGeometry x="-1040" y="930" width="490" height="230" as="geometry" />
        </mxCell>
        <mxCell id="nvozfT3oqAUqyu6yPgUq-67" value="&lt;div style=&quot;color: rgb(204, 204, 204); background-color: rgb(31, 31, 31); font-family: Consolas, &amp;quot;Courier New&amp;quot;, monospace; font-size: 14px; line-height: 19px; white-space: pre;&quot;&gt;&lt;div&gt;&lt;span style=&quot;color: #808080;&quot;&gt;&amp;lt;&lt;/span&gt;&lt;span style=&quot;color: #4ec9b0;&quot;&gt;TopBarChat&lt;/span&gt;&lt;span style=&quot;color: #d4d4d4;&quot;&gt; &lt;/span&gt;&lt;span style=&quot;color: #d4d4d4;&quot;&gt; &lt;/span&gt;&lt;span style=&quot;color: #808080;&quot;&gt;/&amp;gt;&lt;/span&gt;&lt;/div&gt;&lt;div&gt;&lt;span style=&quot;color: #808080;&quot;&gt;&amp;lt;&lt;/span&gt;&lt;span style=&quot;color: #4ec9b0;&quot;&gt;AverageBlock&lt;/span&gt;&lt;span style=&quot;color: #d4d4d4;&quot;&gt; &lt;/span&gt;&lt;span style=&quot;color: #808080;&quot;&gt;/&amp;gt;&lt;/span&gt;&lt;/div&gt;&lt;div&gt;&lt;span style=&quot;color: #808080;&quot;&gt;&amp;lt;&lt;/span&gt;&lt;span style=&quot;color: #4ec9b0;&quot;&gt;BottomBar&lt;/span&gt;&lt;span style=&quot;color: #d4d4d4;&quot;&gt; &lt;/span&gt;&lt;span style=&quot;color: #808080;&quot;&gt;/&amp;gt;&lt;/span&gt;&lt;/div&gt;&lt;/div&gt;" style="html=1;shape=mxgraph.er.anchor;whiteSpace=wrap;" vertex="1" parent="nvozfT3oqAUqyu6yPgUq-66">
          <mxGeometry width="245.00000000000003" height="229.99999999999997" as="geometry" />
        </mxCell>
        <mxCell id="nvozfT3oqAUqyu6yPgUq-68" value="&lt;div style=&quot;color: rgb(204, 204, 204); background-color: rgb(31, 31, 31); font-family: Consolas, &amp;quot;Courier New&amp;quot;, monospace; font-size: 14px; line-height: 19px; white-space: pre;&quot;&gt;&lt;span style=&quot;color: #808080;&quot;&gt;&amp;lt;&lt;/span&gt;&lt;span style=&quot;color: #4ec9b0;&quot;&gt;InformationBlock&lt;/span&gt;&lt;/div&gt;" style="rounded=1;absoluteArcSize=1;html=1;arcSize=10;whiteSpace=wrap;points=[];strokeColor=inherit;fillColor=inherit;" vertex="1" parent="nvozfT3oqAUqyu6yPgUq-66">
          <mxGeometry x="400" y="11.5" width="155.5" height="207" as="geometry" />
        </mxCell>
        <mxCell id="nvozfT3oqAUqyu6yPgUq-71" value="" style="shape=singleArrow;direction=west;whiteSpace=wrap;html=1;" vertex="1" parent="nvozfT3oqAUqyu6yPgUq-66">
          <mxGeometry x="300" y="85" width="100" height="60" as="geometry" />
        </mxCell>
      </root>
    </mxGraphModel>
  </diagram>
</mxfile>
